<?xml version="1.0" standalone="no"?>
<!DOCTYPE svg PUBLIC "-//W3C//DTD SVG 20010904//EN"
 "http://www.w3.org/TR/2001/REC-SVG-20010904/DTD/svg10.dtd">
<svg version="1.0" xmlns="http://www.w3.org/2000/svg"
 width="512.000000pt" height="512.000000pt" viewBox="0 0 512.000000 512.000000"
 preserveAspectRatio="xMidYMid meet">

<g transform="translate(0.000000,512.000000) scale(0.100000,-0.100000)"
fill="#000000" stroke="none">
<path d="M338 4921 c-26 -10 -63 -28 -82 -40 -56 -35 -133 -126 -158 -189
l-23 -57 0 -1186 0 -1185 37 -76 c45 -91 103 -147 196 -191 l67 -32 558 -3
557 -3 0 -168 0 -169 -242 -4 c-223 -4 -248 -6 -301 -27 -85 -33 -150 -89
-183 -158 -28 -56 -29 -63 -29 -211 l0 -154 28 -24 28 -24 1064 0 1064 0 3
-337 c3 -327 4 -339 25 -380 27 -50 85 -100 133 -114 23 -6 341 -9 927 -7
l891 3 43 30 c51 36 85 82 99 136 7 24 9 616 8 1736 l-3 1700 -30 49 c-19 30
-49 60 -79 79 l-49 30 -259 3 -258 3 0 297 c0 163 -5 324 -10 357 -21 130
-109 248 -228 303 l-57 27 -1845 2 c-1770 2 -1847 1 -1892 -16z m3720 -157
c49 -20 100 -70 123 -119 17 -36 19 -70 19 -367 l0 -328 -50 0 -50 0 0 318 c0
300 -1 319 -20 350 -41 66 89 62 -1865 62 -1939 0 -1807 4 -1854 -56 -21 -27
-21 -27 -21 -1053 0 -871 2 -1030 14 -1047 14 -18 36 -19 738 -24 l723 -5 3
-188 2 -188 -707 3 c-669 3 -710 4 -743 22 -49 26 -88 64 -113 111 l-22 40 -3
1135 c-2 849 0 1146 9 1178 18 64 60 116 120 146 l53 26 1803 0 c1607 0 1808
-2 1841 -16z m-118 -529 l0 -285 -417 0 -418 0 -51 -24 c-28 -13 -63 -39 -77
-58 -50 -65 -57 -97 -57 -247 l0 -140 -57 21 c-81 29 -245 35 -337 14 -259
-61 -460 -294 -483 -561 -5 -66 -4 -73 20 -100 25 -30 26 -30 152 -34 199 -5
227 7 240 104 22 177 231 258 358 137 54 -51 67 -91 67 -202 l0 -100 -441 0
c-300 0 -455 -4 -486 -12 -31 -7 -58 -24 -83 -50 l-38 -38 -666 0 -666 0 0
930 0 930 1720 0 1720 0 0 -285z m-552 -522 c43 -84 80 -125 125 -142 18 -7
183 -11 472 -11 289 0 454 4 472 11 46 17 82 59 124 142 l39 77 111 0 c103 0
111 -1 134 -25 l25 -24 0 -1674 0 -1674 -21 -27 -20 -26 -864 0 -864 0 -20 26
c-21 26 -21 36 -21 495 l0 468 158 3 c153 3 160 4 199 30 24 16 49 44 62 70
21 44 21 54 21 604 0 347 -4 573 -10 596 -18 65 -110 128 -187 128 -22 0 -23
4 -23 88 -1 207 -60 368 -178 490 l-42 42 0 180 c0 179 0 181 25 205 23 24 31
25 133 25 l110 0 40 -77z m1042 72 c0 -4 -7 -19 -15 -35 l-16 -30 -414 0 -414
0 -16 30 c-8 16 -15 31 -15 35 0 3 200 5 445 5 245 0 445 -2 445 -5z m-1645
-430 c132 -35 238 -123 302 -251 37 -77 38 -80 41 -211 l4 -133 -41 0 -41 0 0
73 c0 206 -70 336 -218 409 -62 31 -74 33 -167 33 -91 0 -105 -3 -158 -30 -74
-37 -157 -125 -188 -199 -23 -56 -23 -56 -66 -56 -42 0 -43 1 -37 28 15 65 70
159 124 213 118 118 286 165 445 124z m573 -1295 c1 -289 0 -535 -3 -548 l-5
-22 -683 2 -682 3 -3 548 -2 547 687 -2 688 -3 3 -525z m-1538 -270 l0 -170
-85 0 -85 0 0 170 0 170 85 0 85 0 0 -170z m31 -377 c14 -22 43 -48 69 -60 44
-23 46 -23 522 -23 l478 0 0 -75 0 -75 -1012 2 -1013 3 0 87 c0 78 3 89 25
113 60 65 55 64 501 65 l406 0 24 -37z"/>
<path d="M1966 4159 c-22 -5 -54 -19 -72 -30 -19 -11 -146 -136 -283 -277
l-250 -257 -128 127 c-107 105 -136 128 -173 138 -106 29 -214 -20 -266 -120
-26 -50 -24 -143 3 -195 31 -57 428 -450 475 -470 52 -21 140 -19 186 4 47 24
734 714 757 760 84 167 -68 362 -249 320z m100 -185 c13 -19 15 -32 8 -50 -5
-13 -162 -177 -349 -364 -268 -268 -345 -340 -365 -340 -19 0 -69 44 -222 198
-108 108 -197 204 -198 212 -5 34 1 50 25 66 39 26 67 8 215 -141 147 -148
175 -163 228 -129 15 10 150 143 301 296 250 255 276 278 307 278 25 0 38 -7
50 -26z"/>
<path d="M4460 2333 c-8 -3 -92 -82 -187 -176 l-172 -171 -94 92 c-102 99
-123 109 -170 72 -32 -26 -41 -63 -23 -98 8 -15 68 -80 134 -144 104 -102 125
-118 153 -118 30 0 55 22 246 213 240 239 249 253 195 307 -29 29 -50 35 -82
23z"/>
<path d="M3721 674 c-26 -33 -27 -75 -2 -105 l19 -24 247 0 247 0 19 24 c25
30 24 72 -2 105 l-20 26 -244 0 -244 0 -20 -26z"/>
<path d="M2571 2487 c-46 -15 -136 -99 -154 -145 -40 -100 -27 -201 37 -286
l35 -44 3 -159 c3 -157 3 -160 31 -196 37 -49 81 -70 142 -71 65 -1 120 27
153 77 26 39 27 47 30 200 l3 160 33 39 c85 99 73 272 -25 365 -70 66 -190 91
-288 60z m176 -180 c17 -16 27 -40 30 -69 5 -42 2 -48 -41 -97 l-46 -52 0
-169 c0 -163 -1 -170 -20 -170 -19 0 -20 7 -20 170 l0 171 -45 46 c-40 40 -45
50 -45 90 0 38 5 50 35 80 33 33 39 35 81 30 31 -3 55 -13 71 -30z"/>
</g>
</svg>
